# xmcd
#
# Track frame offsets:
#	150
#	26763
#	39678
#	53828
#	66928
#	80643
#	93260
#	107833
#	121164
#	133560
#	145320
#	158083
#	172231
#	186129
#	199267
#	211294
#
# Disc length: 2956 seconds
#
# Revision: 0
# Processed by: cddbd v1.5.2PL0 Copyright (c) Steve Scherf et al.
# Submitted via: EasyCDDAExtractor 11.5.3.1
#
DISCID=ea0b8a10
DTITLE=Various Artist - Blues Box 2
DYEAR=1976
DGENRE=Blues
TTITLE0=Trixie Smith - My Daddy Rocks Me
TTITLE1=Trixie Smith - Jack I'm Mellow
TTITLE2=Sweet Pease Spivey - Grievin' Me
TTITLE3=Sweet Pease Spivey - You Weren't True
TTITLE4=Victoria Spivey - Sweet Pease
TTITLE5=Victoria Spivey - T B's Got Me
TTITLE6=Johnny Temple - My Pony
TTITLE7=Johnny Temple - Jive Me Baby
TTITLE8=Big Joe Turner - Doggin' The Dog
TTITLE9=Big Joe Turner - Corinne Corinna
TTITLE10=Babe Wallace - Sugar Boogie
TTITLE11=Babe Wallace - I'll Make It Worth Your While
TTITLE12=Georgia White - Jazzin' Babies Blues
TTITLE13=Georgia White - Papa Pleaser
TTITLE14=Grant and Wilson - Uncle Joe
TTITLE15=Grant and Wilson - Blue Monday On Sugar Hill
EXTD=
EXTT0=
EXTT1=
EXTT2=
EXTT3=
EXTT4=
EXTT5=
EXTT6=
EXTT7=
EXTT8=
EXTT9=
EXTT10=
EXTT11=
EXTT12=
EXTT13=
EXTT14=
EXTT15=
PLAYORDER=
